<svg width="70" height="11" viewBox="0 0 70 11" fill="none" xmlns="http://www.w3.org/2000/svg">
<path d="M7 0.723694L8.85152 3.79378L13.6574 4.05949L9.99583 6.22262L11.1145 9.45692L7 7.72373L2.8855 9.45692L4.00417 6.22262L0.342604 4.05949L5.14848 3.79378L7 0.723694Z" fill="#FFA432"/>
<path d="M21 0.723694L22.8515 3.79378L27.6574 4.05949L23.9958 6.22262L25.1145 9.45692L21 7.72373L16.8855 9.45692L18.0042 6.22262L14.3426 4.05949L19.1485 3.79378L21 0.723694Z" fill="#FFA432"/>
<path d="M35 0.723694L36.8515 3.79378L41.6574 4.05949L37.9958 6.22262L39.1145 9.45692L35 7.72373L30.8855 9.45692L32.0042 6.22262L28.3426 4.05949L33.1485 3.79378L35 0.723694Z" fill="#FFA432"/>
<path d="M49 0.723694L50.8515 3.79378L55.6574 4.05949L51.9958 6.22262L53.1145 9.45692L49 7.72373L44.8855 9.45692L46.0042 6.22262L42.3426 4.05949L47.1485 3.79378L49 0.723694Z" fill="#FFA432"/>
<path d="M63 0.723694L64.8515 3.79378L69.6574 4.05949L65.9958 6.22262L67.1145 9.45692L63 7.72373L58.8855 9.45692L60.0042 6.22262L56.3426 4.05949L61.1485 3.79378L63 0.723694Z" fill="#CFD9DE"/>
</svg>
