<svg width="70" height="11" viewBox="0 0 70 11" fill="none" xmlns="http://www.w3.org/2000/svg">
<path d="M7 0.417725L8.85152 3.51694L13.6574 3.78517L9.99583 5.96883L11.1145 9.23382L7 7.48418L2.8855 9.23382L4.00417 5.96883L0.342604 3.78517L5.14848 3.51694L7 0.417725Z" fill="#FFA432"/>
<path d="M21 0.417725L22.8515 3.51694L27.6574 3.78517L23.9958 5.96883L25.1145 9.23382L21 7.48418L16.8855 9.23382L18.0042 5.96883L14.3426 3.78517L19.1485 3.51694L21 0.417725Z" fill="#FFA432"/>
<path d="M35 0.417725L36.8515 3.51694L41.6574 3.78517L37.9958 5.96883L39.1145 9.23382L35 7.48418L30.8855 9.23382L32.0042 5.96883L28.3426 3.78517L33.1485 3.51694L35 0.417725Z" fill="#FFA432"/>
<path d="M49 0.417725L50.8515 3.51694L55.6574 3.78517L51.9958 5.96883L53.1145 9.23382L49 7.48418L44.8855 9.23382L46.0042 5.96883L42.3426 3.78517L47.1485 3.51694L49 0.417725Z" fill="#FFA432"/>
<path d="M63 0.417725L64.8515 3.51694L69.6574 3.78517L65.9958 5.96883L67.1145 9.23382L63 7.48418L58.8855 9.23382L60.0042 5.96883L56.3426 3.78517L61.1485 3.51694L63 0.417725Z" fill="#CFD9DE"/>
</svg>
