<svg width="70" height="15" viewBox="0 0 70 15" fill="none" xmlns="http://www.w3.org/2000/svg">
<path d="M7 0.911133L8.85152 5.29678L13.6574 5.67636L9.99583 8.76641L11.1145 13.3867L7 10.9108L2.8855 13.3867L4.00417 8.76641L0.342604 5.67636L5.14848 5.29678L7 0.911133Z" fill="#FFA432"/>
<path d="M21 0.911133L22.8515 5.29678L27.6574 5.67636L23.9958 8.76641L25.1145 13.3867L21 10.9108L16.8855 13.3867L18.0042 8.76641L14.3426 5.67636L19.1485 5.29678L21 0.911133Z" fill="#FFA432"/>
<path d="M35 0.911133L36.8515 5.29678L41.6574 5.67636L37.9958 8.76641L39.1145 13.3867L35 10.9108L30.8855 13.3867L32.0042 8.76641L28.3426 5.67636L33.1485 5.29678L35 0.911133Z" fill="#FFA432"/>
<path d="M49 0.911133L50.8515 5.29678L55.6574 5.67636L51.9958 8.76641L53.1145 13.3867L49 10.9108L44.8855 13.3867L46.0042 8.76641L42.3426 5.67636L47.1485 5.29678L49 0.911133Z" fill="#FFA432"/>
<path d="M63 0.911133L64.8515 5.29678L69.6574 5.67636L65.9958 8.76641L67.1145 13.3867L63 10.9108L58.8855 13.3867L60.0042 8.76641L56.3426 5.67636L61.1485 5.29678L63 0.911133Z" fill="#CFD9DE"/>
</svg>
