<svg width="15" height="9" viewBox="0 0 15 9" fill="none" xmlns="http://www.w3.org/2000/svg">
<path d="M3.20038 4.05029H4.80038V4.82394H3.20038V4.05029ZM3.20038 5.59759H4.80038V6.37124H3.20038V5.59759ZM6.40038 4.05029H8.00038V4.82394H6.40038V4.05029ZM6.40038 5.59759H8.00038V6.37124H6.40038V5.59759ZM9.60038 4.05029H11.2004V4.82394H9.60038V4.05029ZM9.60038 5.59759H11.2004V6.37124H9.60038V5.59759Z" fill="#7BBCB0"/>
<path d="M1.6 8.30387H12.8C13.6824 8.30387 14.4 7.957 14.4 7.53047V2.11663C14.4 1.6901 13.6824 1.34323 12.8 1.34323H11.2V0.569824H9.6V1.34323H4.8V0.569824H3.2V1.34323H1.6C0.7176 1.34323 0 1.6901 0 2.11663V7.53047C0 7.957 0.7176 8.30387 1.6 8.30387ZM12.8 2.89004L12.8008 7.53047H1.6V2.89004H12.8Z" fill="#7BBCB0"/>
</svg>
