<svg width="40" height="40" viewBox="0 0 40 40" fill="none" xmlns="http://www.w3.org/2000/svg">
<circle cx="20" cy="20" r="20" fill="#37B1E2"/>
<path d="M29.091 14.4913C28.4224 14.7812 27.6947 14.9899 26.9453 15.0712C27.7234 14.6065 28.3061 13.8723 28.5841 13.0064C27.8539 13.4431 27.054 13.7493 26.2198 13.9114C25.8712 13.5367 25.4495 13.2383 24.9811 13.0346C24.5127 12.8309 24.0076 12.7263 23.4973 12.7275C21.4324 12.7275 19.7718 14.41 19.7718 16.4747C19.7718 16.7647 19.8067 17.0546 19.8635 17.3336C16.7717 17.171 14.0141 15.6862 12.1809 13.4128C11.8468 13.9863 11.6718 14.6394 11.6739 15.304C11.6739 16.6043 12.3316 17.7509 13.3346 18.4252C12.7435 18.4018 12.1663 18.2385 11.6499 17.9486V17.9947C11.6499 19.8156 12.9304 21.3247 14.6369 21.6717C14.3165 21.7554 13.9868 21.7982 13.6558 21.7991C13.4132 21.7991 13.1838 21.7749 12.9522 21.742C13.4242 23.2268 14.7986 24.3053 16.4352 24.3405C15.1547 25.3487 13.5509 25.9417 11.8094 25.9417C11.497 25.9417 11.2085 25.9308 10.9092 25.8956C12.5611 26.9609 14.5211 27.5759 16.6318 27.5759C23.4842 27.5759 27.2337 21.8694 27.2337 16.9162C27.2337 16.7537 27.2337 16.5912 27.2228 16.4286C27.9482 15.8949 28.5841 15.2337 29.091 14.4913Z" fill="white"/>
</svg>
