<svg width="13" height="9" viewBox="0 0 13 9" fill="none" xmlns="http://www.w3.org/2000/svg">
<path d="M6.28572 0.569824C4.61925 0.570775 3.0216 0.891193 1.84322 1.46079C0.664847 2.03039 0.00197267 2.80266 6.68736e-06 3.6082C-0.00198925 4.26648 0.442853 4.90691 1.26629 5.43123C1.26629 5.43123 1.43772 5.54033 1.46572 5.55608L6.28572 8.30387L11.108 5.55469C11.1331 5.54006 11.3052 5.43123 11.3052 5.43123L11.3057 5.4304C12.1288 4.90631 12.5734 4.26618 12.5714 3.6082C12.5695 2.80266 11.9066 2.03039 10.7282 1.46079C9.54985 0.891193 7.95219 0.570775 6.28572 0.569824ZM6.28572 4.71306C5.83365 4.71306 5.39173 4.64826 5.01585 4.52686C4.63996 4.40546 4.347 4.2329 4.174 4.03101C4.001 3.82913 3.95573 3.60697 4.04393 3.39265C4.13212 3.17833 4.34981 2.98146 4.66948 2.82694C4.98914 2.67243 5.39642 2.5672 5.8398 2.52457C6.28319 2.48193 6.74277 2.50381 7.16043 2.58744C7.57809 2.67106 7.93507 2.81268 8.18622 2.99437C8.43738 3.17606 8.57144 3.38968 8.57144 3.6082C8.57068 3.90112 8.32962 4.18193 7.90113 4.38905C7.47264 4.59618 6.8917 4.7127 6.28572 4.71306Z" fill="#7BBCB0"/>
</svg>
